<svg id="visual" viewBox="0 0 900 600" width="900" height="600" xmlns="http://www.w3.org/2000/svg" xmlns:xlink="http://www.w3.org/1999/xlink" version="1.1"><rect x="0" y="0" width="900" height="600" fill="#001220"></rect><path d="M0 439L15 449.3C30 459.7 60 480.3 90 479.7C120 479 150 457 180 442.2C210 427.3 240 419.7 270 416.5C300 413.3 330 414.7 360 404.3C390 394 420 372 450 365.2C480 358.3 510 366.7 540 391.3C570 416 600 457 630 463.7C660 470.3 690 442.7 720 437.2C750 431.7 780 448.3 810 449.3C840 450.3 870 435.7 885 428.3L900 421L900 601L885 601C870 601 840 601 810 601C780 601 750 601 720 601C690 601 660 601 630 601C600 601 570 601 540 601C510 601 480 601 450 601C420 601 390 601 360 601C330 601 300 601 270 601C240 601 210 601 180 601C150 601 120 601 90 601C60 601 30 601 15 601L0 601Z" fill="#ffffff"></path><path d="M0 405L15 403.3C30 401.7 60 398.3 90 412.2C120 426 150 457 180 473.2C210 489.3 240 490.7 270 488.7C300 486.7 330 481.3 360 474.7C390 468 420 460 450 463.3C480 466.7 510 481.3 540 471.2C570 461 600 426 630 411.8C660 397.7 690 404.3 720 412.7C750 421 780 431 810 441.7C840 452.3 870 463.7 885 469.3L900 475L900 601L885 601C870 601 840 601 810 601C780 601 750 601 720 601C690 601 660 601 630 601C600 601 570 601 540 601C510 601 480 601 450 601C420 601 390 601 360 601C330 601 300 601 270 601C240 601 210 601 180 601C150 601 120 601 90 601C60 601 30 601 15 601L0 601Z" fill="#e7f0fe"></path><path d="M0 523L15 520.5C30 518 60 513 90 501.7C120 490.3 150 472.7 180 469.7C210 466.7 240 478.3 270 480.2C300 482 330 474 360 461.8C390 449.7 420 433.3 450 432.3C480 431.3 510 445.7 540 457.8C570 470 600 480 630 477.5C660 475 690 460 720 450.5C750 441 780 437 810 445.5C840 454 870 475 885 485.5L900 496L900 601L885 601C870 601 840 601 810 601C780 601 750 601 720 601C690 601 660 601 630 601C600 601 570 601 540 601C510 601 480 601 450 601C420 601 390 601 360 601C330 601 300 601 270 601C240 601 210 601 180 601C150 601 120 601 90 601C60 601 30 601 15 601L0 601Z" fill="#cee2fd"></path><path d="M0 463L15 466.8C30 470.7 60 478.3 90 486.3C120 494.3 150 502.7 180 503.7C210 504.7 240 498.3 270 497.7C300 497 330 502 360 510.3C390 518.7 420 530.3 450 526.8C480 523.3 510 504.7 540 488.7C570 472.7 600 459.3 630 453.8C660 448.3 690 450.7 720 461.5C750 472.3 780 491.7 810 503.2C840 514.7 870 518.3 885 520.2L900 522L900 601L885 601C870 601 840 601 810 601C780 601 750 601 720 601C690 601 660 601 630 601C600 601 570 601 540 601C510 601 480 601 450 601C420 601 390 601 360 601C330 601 300 601 270 601C240 601 210 601 180 601C150 601 120 601 90 601C60 601 30 601 15 601L0 601Z" fill="#b4d4fc"></path><path d="M0 542L15 538.5C30 535 60 528 90 528.5C120 529 150 537 180 536.8C210 536.7 240 528.3 270 522.8C300 517.3 330 514.7 360 507.5C390 500.3 420 488.7 450 490.3C480 492 510 507 540 510.5C570 514 600 506 630 502.8C660 499.7 690 501.3 720 503.2C750 505 780 507 810 516C840 525 870 541 885 549L900 557L900 601L885 601C870 601 840 601 810 601C780 601 750 601 720 601C690 601 660 601 630 601C600 601 570 601 540 601C510 601 480 601 450 601C420 601 390 601 360 601C330 601 300 601 270 601C240 601 210 601 180 601C150 601 120 601 90 601C60 601 30 601 15 601L0 601Z" fill="#98c6fa"></path><path d="M0 551L15 550.5C30 550 60 549 90 547C120 545 150 542 180 545.3C210 548.7 240 558.3 270 559.8C300 561.3 330 554.7 360 553.8C390 553 420 558 450 560.2C480 562.3 510 561.7 540 558.8C570 556 600 551 630 543.7C660 536.3 690 526.7 720 524.3C750 522 780 527 810 528.5C840 530 870 528 885 527L900 526L900 601L885 601C870 601 840 601 810 601C780 601 750 601 720 601C690 601 660 601 630 601C600 601 570 601 540 601C510 601 480 601 450 601C420 601 390 601 360 601C330 601 300 601 270 601C240 601 210 601 180 601C150 601 120 601 90 601C60 601 30 601 15 601L0 601Z" fill="#78b9f9"></path><path d="M0 569L15 571.3C30 573.7 60 578.3 90 574.3C120 570.3 150 557.7 180 550.8C210 544 240 543 270 546.3C300 549.7 330 557.3 360 560.2C390 563 420 561 450 557C480 553 510 547 540 548.7C570 550.3 600 559.7 630 565.3C660 571 690 573 720 568.2C750 563.3 780 551.7 810 552.2C840 552.7 870 565.3 885 571.7L900 578L900 601L885 601C870 601 840 601 810 601C780 601 750 601 720 601C690 601 660 601 630 601C600 601 570 601 540 601C510 601 480 601 450 601C420 601 390 601 360 601C330 601 300 601 270 601C240 601 210 601 180 601C150 601 120 601 90 601C60 601 30 601 15 601L0 601Z" fill="#4facf7"></path></svg>